<svg id="Capa_1" enable-background="new 0 0 512 512" height="512" viewBox="0 0 512 512" width="512" xmlns="http://www.w3.org/2000/svg"><path d="m470.231 406.47c26.676-25.047 41.769-58.603 41.769-93.618 0-73.987-66.255-134.252-148-134.983v-96.08c0-23.054-18.756-41.81-41.81-41.81h-280.38c-23.054 0-41.81 18.756-41.81 41.81v183.141c0 23.054 18.756 41.81 41.81 41.81h36.046v47.791c0 9.654 5.396 18.271 14.081 22.488 3.508 1.703 7.248 2.541 10.96 2.541 5.479 0 10.898-1.825 15.421-5.385l85.682-67.436h9.16c-.101 2.027-.16 4.064-.16 6.113 0 74.439 67.065 135 149.5 135 6.462 0 12.94-.376 19.337-1.121 20.5 16.087 48.976 25.291 77.872 25.29 4.161 0 8.336-.19 12.492-.58 9.805-.916 17.927-7.269 21.198-16.578 3.277-9.328.907-19.385-6.185-26.246-5.526-5.349-12.346-13.064-16.983-22.147zm-73.679 13.434c-2.787-2.556-6.412-3.944-10.138-3.944-.788 0-1.581.063-2.371.188-7.064 1.131-14.313 1.704-21.543 1.704-65.893 0-119.5-47.103-119.5-105 0-2.052.075-4.09.208-6.113h78.983c23.054 0 41.81-18.756 41.81-41.81v-57.06c65.203.709 118 47.526 118 104.983 0 29.429-14.23 57.71-39.042 77.594-4.784 3.834-6.754 10.193-4.974 16.061 4.313 14.217 12.608 26.341 20.604 35.502-23.684-.277-47.182-8.482-62.037-22.105zm-207.024-139.952-81.672 64.279v-52.492c0-8.284-6.716-15-15-15h-51.046c-6.512 0-11.81-5.298-11.81-11.81v-183.14c0-6.512 5.298-11.81 11.81-11.81h280.38c6.512 0 11.81 5.298 11.81 11.81v183.141c0 6.512-5.298 11.81-11.81 11.81h-123.385c-3.365-.001-6.633 1.131-9.277 3.212z"/></svg>